<svg width="103" height="70" viewBox="0 0 103 70" fill="none" xmlns="http://www.w3.org/2000/svg">
<g id="Frame 2815">
<rect x="1" y="1" width="100" height="78" rx="8" fill="white"/>
<g id="Group">
<path id="Vector" d="M102.853 0.421875V79.5774H23.5469C21.5548 73.3363 20.4648 66.6766 20.4648 59.7505C20.4648 33.0355 36.5891 10.126 59.4789 0.421875H102.853Z" fill="white"/>
<path id="Vector_2" d="M20.5391 46.9609C24.5983 58.7582 35.6861 67.2065 48.7284 67.2065C53.3514 67.2065 57.7114 66.1409 61.6203 64.2382" stroke="#777777" stroke-miterlimit="10" stroke-linecap="round" stroke-linejoin="round"/>
<path id="Vector_3" d="M45.3456 43.7672C48.1645 43.7672 50.4196 41.4839 50.4196 38.6297C50.4196 35.7755 48.1645 33.4922 45.3456 33.4922C42.5266 33.4922 40.2715 35.7755 40.2715 38.6297C40.2715 41.4458 42.5642 43.7672 45.3456 43.7672Z" fill="#040404"/>
<path id="Vector_4" d="M34.4465 64.7331C38.1675 62.7542 39.8965 58.6822 38.3179 55.6378C36.7393 52.5934 32.4169 51.7561 28.6959 53.735C24.9749 55.7139 23.246 59.7859 24.8246 62.8303C26.4032 65.8747 30.7255 66.75 34.4465 64.7331Z" fill="#040404"/>
<path id="Vector_5" d="M73.7613 56.2135C85.5632 56.2135 95.1475 46.5093 95.1475 34.5599C95.1475 22.6104 85.5632 12.9062 73.7613 12.9062C61.9594 12.9062 52.375 22.6104 52.375 34.5599C52.375 46.5093 61.9594 56.2135 73.7613 56.2135Z" fill="url(#paint0_radial_1412_15495)"/>
<path id="Vector_6" d="M39.5957 8.1883C42.4522 7.23691 45.5342 6.74219 48.6914 6.74219C55.269 6.74219 61.3578 8.91135 66.3192 12.5647" stroke="#777777" stroke-miterlimit="10" stroke-linecap="round" stroke-linejoin="round"/>
<path id="Vector_7" d="M79.1728 67.2473C79.1352 67.3995 79.0977 67.5137 79.0601 67.6279C78.4587 69.8731 77.1056 70.4059 76.9177 70.482C76.166 70.8626 75.0008 71.0909 73.7229 71.0909C71.9939 71.0909 70.4905 70.6342 69.8891 70.0253C68.7992 69.1881 68.4609 68.1987 68.3481 67.6279C68.3481 67.6279 68.3105 67.4376 68.3105 67.3234C68.3105 67.2473 68.3105 67.2473 68.3105 67.2092C68.3105 66.0295 70.7536 65.0781 73.7605 65.0781C76.7673 65.1162 79.1728 66.0676 79.1728 67.2473Z" fill="#040404"/>
<path id="Vector_8" d="M79.736 64.8516C79.6984 65.0039 79.6608 65.1561 79.6232 65.2702C78.9842 67.7439 77.4432 68.3527 77.2553 68.4289H77.2177C76.3908 68.8475 75.1129 69.1139 73.7222 69.1139C71.8054 69.1139 70.1516 68.6191 69.475 67.9341C68.2723 67.0208 67.8964 65.9172 67.7837 65.3083C67.7837 65.3083 67.7461 65.08 67.7461 64.9658C67.7461 64.8897 67.7461 64.8516 67.7461 64.8516C67.7461 63.5577 70.4147 62.4922 73.7222 62.4922C77.0674 62.4922 79.736 63.5577 79.736 64.8516Z" fill="#363636"/>
<path id="Vector_9" d="M81.2018 61.0855C81.1642 61.2758 81.1267 61.4661 81.0891 61.6183C80.2622 64.7008 78.3829 65.4619 78.1574 65.538H78.1198C77.0674 66.0708 75.5264 66.3752 73.7599 66.3752C71.392 66.3752 69.3247 65.7663 68.4979 64.8911C66.9944 63.7494 66.5434 62.3794 66.3931 61.6183C66.3931 61.6183 66.3555 61.3519 66.3555 61.1997C66.3555 61.1236 66.3555 61.0855 66.3555 61.0475C66.3555 59.4111 69.7006 58.1172 73.7974 58.1172C77.8567 58.1172 81.2018 59.4491 81.2018 61.0855Z" fill="#777777"/>
<path id="Vector_10" d="M43.9549 43.7672C46.7739 43.7672 49.029 41.4839 49.029 38.6297C49.029 35.7755 46.7739 33.4922 43.9549 33.4922C41.136 33.4922 38.8809 35.7755 38.8809 38.6297C38.8809 41.4458 41.1736 43.7672 43.9549 43.7672Z" fill="url(#paint1_linear_1412_15495)"/>
<path id="Vector_11" d="M91.1637 10.2419C90.6751 11.3455 91.7651 12.9058 93.5692 13.7811C95.4109 14.6183 97.2902 14.428 97.7788 13.3244C98.2674 12.2208 97.1774 10.6605 95.3733 9.78526C93.5692 8.94803 91.6899 9.13831 91.1637 10.2419Z" fill="#3761C8"/>
<path id="Vector_12" d="M1.4082 18.5H6.51986H15.8035L24.9369 9.51891C24.9369 9.51891 30.1989 3.16363 31.9278 3.43002C33.6568 3.69641 33.7695 4.45752 33.544 5.48502C33.2809 6.51252 28.921 12.982 28.921 12.982" stroke="black" stroke-miterlimit="10" stroke-linecap="round" stroke-linejoin="round"/>
<path id="Vector_13" d="M27.3043 23.9373C28.8454 21.007 31.0629 20.5503 34.7087 20.7406C38.3545 20.9309 42.5642 24.6223 44.481 26.5631C46.3979 28.5039 48.2396 31.6245 46.3979 32.5759C44.5562 33.5653 43.4286 32.005 41.1359 29.7598C38.8432 27.5145 35.2725 26.4489 32.416 26.3728C29.5219 26.2586 29.146 29.4934 28.2816 33.0706C27.4171 36.6478 37.0015 40.5675 37.0015 40.5675C37.0015 40.5675 40.6473 41.8234 40.5345 43.7642C40.4218 45.705 36.8887 44.6395 33.3556 43.7642C29.8226 42.8889 24.523 42.3942 24.523 42.3942H1.5957" stroke="black" stroke-miterlimit="10" stroke-linecap="round" stroke-linejoin="round"/>
<path id="Vector_14" d="M24.4863 16.4417C24.4863 16.4417 25.877 12.7503 31.3269 12.6361C36.7769 12.5219 43.8054 15.4142 45.0833 15.8708C46.3612 16.3275 49.1802 16.708 48.9171 17.9258C48.654 19.1436 48.0902 20.2472 45.2712 20.1331" stroke="black" stroke-miterlimit="10" stroke-linecap="round" stroke-linejoin="round"/>
<path id="Vector_15" d="M26.5898 19.8307C26.5898 19.8307 29.5967 16.2154 34.6332 16.4057C39.6697 16.596 44.0296 19.8307 44.0296 19.8307C44.0296 19.8307 50.1561 22.799 49.7802 23.8646C49.4044 24.8921 49.7426 25.4249 47.1492 25.501C44.5558 25.5771 42.5262 24.7779 42.5262 24.7779" stroke="black" stroke-miterlimit="10" stroke-linecap="round" stroke-linejoin="round"/>
<path id="Vector_16" d="M28.846 5.32993C28.846 5.32993 28.5077 6.73799 30.4997 6.66187C32.4918 6.58576 33.2435 3.92188 33.2435 3.92188" stroke="black" stroke-miterlimit="10" stroke-linecap="round" stroke-linejoin="round"/>
<path id="Vector_17" d="M44.9696 27.0625C44.9696 27.0625 43.2782 28.2422 44.293 30.3733C45.3078 32.5044 46.7361 32.3142 46.7361 32.3142" stroke="black" stroke-miterlimit="10" stroke-linecap="round" stroke-linejoin="round"/>
<path id="Vector_18" d="M34.4082 44.0307C34.4082 44.0307 35.423 42.4704 37.7909 42.5085C40.1212 42.5466 40.4971 43.2696 40.4971 43.2696" stroke="black" stroke-miterlimit="10" stroke-linecap="round" stroke-linejoin="round"/>
<path id="Vector_19" d="M45.0836 15.875C45.0836 15.875 44.7453 17.245 45.6474 18.2725C46.5495 19.3 47.9401 19.6425 47.9401 19.6425" stroke="black" stroke-miterlimit="10" stroke-linecap="round" stroke-linejoin="round"/>
<path id="Vector_20" d="M46.7364 21.2344C46.7364 21.2344 45.9847 22.338 46.7364 23.5558C47.4882 24.7735 49.2171 25.078 49.2171 25.078" stroke="black" stroke-miterlimit="10" stroke-linecap="round" stroke-linejoin="round"/>
<path id="Vector_21" d="M91.1623 36.8385C91.1623 38.4368 90.9744 39.959 90.5609 41.4432V41.4812C90.5609 41.5193 90.5609 41.5193 90.5609 41.5574C90.4482 41.9379 90.0723 43.1176 89.3582 44.716C88.6816 46.2762 87.742 48.179 86.5017 50.0818C83.7203 54.306 81.2021 60.8135 81.2021 60.8135C81.2021 61.7649 77.8569 62.4879 73.7601 62.4879C69.6632 62.4879 66.3181 61.7268 66.3181 60.8135C66.3181 60.8135 63.8375 54.306 61.0185 50.0818C59.7782 48.2171 58.8386 46.2762 58.162 44.754C57.4855 43.1557 57.072 41.9379 56.9593 41.5574C56.9593 41.5193 56.9593 41.5193 56.9217 41.4812C56.9217 41.4432 56.9217 41.4432 56.9217 41.4432C56.5458 39.9971 56.3203 38.4368 56.3203 36.8385C56.3203 27.0962 64.1006 19.2188 73.7225 19.2188C83.3444 19.2188 91.1623 27.1343 91.1623 36.8385Z" fill="#F0EDE4"/>
<path id="Vector_22" d="M91.1623 36.8385C91.1623 38.4368 90.9744 39.959 90.5609 41.4432V41.4812C90.5609 41.5193 90.5609 41.5193 90.5609 41.5574C90.4482 41.9379 90.0723 43.1176 89.3582 44.716C88.6816 46.2762 87.742 48.179 86.5017 50.0818C83.7203 54.306 81.2021 60.8135 81.2021 60.8135C81.2021 61.7649 77.8569 62.4879 73.7601 62.4879C69.6632 62.4879 66.3181 61.7268 66.3181 60.8135C66.3181 60.8135 63.8375 54.306 61.0185 50.0818C59.7782 48.2171 58.8386 46.2762 58.162 44.754C57.4855 43.1557 57.072 41.9379 56.9593 41.5574C56.9593 41.5193 56.9593 41.5193 56.9217 41.4812C56.9217 41.4432 56.9217 41.4432 56.9217 41.4432C56.5458 39.9971 56.3203 38.4368 56.3203 36.8385C56.3203 27.0962 64.1006 19.2188 73.7225 19.2188C83.3444 19.2188 91.1623 27.1343 91.1623 36.8385Z" fill="url(#paint2_radial_1412_15495)"/>
<path id="Vector_23" d="M90.523 41.5625C90.2224 42.6661 89.8089 43.7317 89.3203 44.7211C90.0344 43.1228 90.4103 41.905 90.523 41.5625Z" fill="#F0EDE4"/>
<path id="Vector_24" d="M75.6399 62.4114C75.6399 62.4114 74.7002 49.5105 77.7447 41.8614C80.7891 34.2122 83.4953 36.9141 83.4201 38.9311C83.345 40.948 77.4816 48.7114 74.9633 46.5422C72.4827 44.373 71.2048 34.5547 73.7606 34.5547C76.3164 34.5547 75.0385 44.373 72.5579 46.5422C70.0772 48.7114 64.2138 40.9861 64.1011 38.9311C63.9883 36.8761 66.6945 34.1741 69.7765 41.8614C72.8585 49.5486 71.8813 62.4114 71.8813 62.4114" stroke="#1F1F1F" stroke-miterlimit="10" stroke-linecap="round" stroke-linejoin="round"/>
<path id="Vector_25" d="M30.8751 59.7854C31.4765 59.7854 31.9651 59.2906 31.9651 58.6817C31.9651 58.0729 31.4765 57.5781 30.8751 57.5781C30.2738 57.5781 29.7852 58.0729 29.7852 58.6817C29.7852 59.2906 30.2738 59.7854 30.8751 59.7854Z" fill="#1F1F1F"/>
<path id="Vector_26" d="M33.9192 63.1003C37.6402 61.1214 39.3691 57.0494 37.7905 54.005C36.2119 50.9606 31.8896 50.1233 28.1686 52.1022C24.4476 54.0811 22.7186 58.153 24.2972 61.1975C25.8758 64.2419 30.1982 65.0791 33.9192 63.1003Z" fill="url(#paint3_linear_1412_15495)"/>
<path id="Vector_27" d="M32.867 61.3882C35.4228 60.0182 36.6255 57.2021 35.5355 55.109C34.4456 53.016 31.4763 52.4451 28.8829 53.8152C26.2895 55.1852 25.1243 58.0013 26.2143 60.0943C27.3419 62.1874 30.3111 62.7963 32.867 61.3882Z" stroke="#1F1F1F" stroke-miterlimit="10" stroke-linecap="round" stroke-linejoin="round"/>
<path id="Vector_28" d="M44.2928 41.9049H43.8042V41.4102C43.3155 41.3722 42.9021 41.2199 42.6014 40.9535C42.3007 40.6872 42.1504 40.3447 42.1504 39.926H42.7893C42.8269 40.1924 42.9021 40.3827 43.09 40.5349C43.278 40.6872 43.5035 40.8013 43.8417 40.8394V38.8605L43.5411 38.7844C43.1276 38.6702 42.8269 38.518 42.6014 38.2516C42.3759 37.9852 42.2631 37.7188 42.2631 37.3763C42.2631 36.9577 42.4135 36.6152 42.6766 36.3488C42.9397 36.0824 43.3155 35.9302 43.8042 35.8922V35.3594H44.2928V35.8922C44.7438 35.9302 45.1197 36.0824 45.4203 36.3488C45.721 36.6152 45.8714 36.9577 45.8714 37.3763H45.2324C45.2324 37.148 45.1197 36.9577 44.9693 36.7674C44.7814 36.6152 44.5935 36.501 44.2928 36.463V38.3277L44.5935 38.4038C45.0445 38.518 45.3828 38.7083 45.6083 38.9366C45.8338 39.1649 45.9465 39.4694 45.9465 39.8499C45.9465 40.3066 45.7962 40.6491 45.4955 40.9155C45.1948 41.1819 44.7814 41.3341 44.2552 41.3722L44.2928 41.9049ZM42.9021 37.3383C42.9021 37.7949 43.2028 38.0994 43.8042 38.2135V36.463C43.5411 36.463 43.3155 36.5772 43.1652 36.7294C43.0149 36.8816 42.9021 37.1099 42.9021 37.3383ZM45.3452 39.926C45.3452 39.6597 45.27 39.4694 45.0821 39.3172C44.9317 39.1649 44.6686 39.0508 44.2928 38.9747V40.8394C44.631 40.8394 44.8566 40.7252 45.0445 40.573C45.2324 40.4208 45.3452 40.1924 45.3452 39.926Z" fill="black"/>
<g id="Vector_29">
<path d="M1.4082 18.5H11.1053V42.3989H1.4082" fill="url(#paint4_linear_1412_15495)"/>
<path d="M1.4082 18.5H11.1053V42.3989H1.4082" stroke="black" stroke-miterlimit="10" stroke-linecap="round" stroke-linejoin="round"/>
</g>
</g>
</g>
<defs>
<radialGradient id="paint0_radial_1412_15495" cx="0" cy="0" r="1" gradientUnits="userSpaceOnUse" gradientTransform="translate(73.9492 34.674) rotate(0.725171) scale(41.3542 41.871)">
<stop offset="0.430099" stop-color="#F0EDE4" stop-opacity="0"/>
<stop offset="0.557292" stop-color="#F0EDE4"/>
</radialGradient>
<linearGradient id="paint1_linear_1412_15495" x1="38.4298" y1="38.4775" x2="49.5177" y2="38.2919" gradientUnits="userSpaceOnUse">
<stop offset="0.439485" stop-color="#638AE9"/>
<stop offset="0.584946" stop-color="#3761C8"/>
</linearGradient>
<radialGradient id="paint2_radial_1412_15495" cx="0" cy="0" r="1" gradientUnits="userSpaceOnUse" gradientTransform="translate(66.6368 37.4982) rotate(35.2117) scale(27.7639 27.8816)">
<stop offset="0.227" stop-color="white" stop-opacity="0"/>
<stop offset="0.727965" stop-color="#EEEBE2" stop-opacity="0.4625"/>
<stop offset="0.9967" stop-color="#9A9A9A" stop-opacity="0.9967"/>
<stop offset="1" stop-color="#999999"/>
</radialGradient>
<linearGradient id="paint3_linear_1412_15495" x1="23.5078" y1="60.1446" x2="39.6693" y2="54.824" gradientUnits="userSpaceOnUse">
<stop offset="0.0648349" stop-color="#B0C5F8"/>
<stop offset="0.265625" stop-color="#638AE9"/>
<stop offset="0.359963" stop-color="#5E86E5"/>
<stop offset="0.5297" stop-color="#4D75D8"/>
<stop offset="0.6155" stop-color="#406ACF"/>
<stop offset="0.7309" stop-color="#3963CA"/>
<stop offset="1" stop-color="#3761C8"/>
</linearGradient>
<linearGradient id="paint4_linear_1412_15495" x1="-3.5804" y1="34.6072" x2="18.5719" y2="25.4752" gradientUnits="userSpaceOnUse">
<stop offset="0.572917" stop-color="#3761C8" stop-opacity="0"/>
<stop offset="0.640625" stop-color="#1F1F1F"/>
</linearGradient>
</defs>
</svg>
