<svg width="405" height="184" viewBox="0 0 405 184" fill="none" xmlns="http://www.w3.org/2000/svg">
<g clip-path="url(#clip0_1834_1834)">
<rect width="405" height="184" rx="8" fill="#F0EDE4"/>
<path d="M266 120.1L243.8 105C242.2 103.9 241.8 101.7 242.9 100.1L277.5 49.3C278.6 47.7 280.8 47.3 282.4 48.4L304.6 63.5C306.2 64.6 306.6 66.8 305.5 68.4L270.9 119.2C269.8 120.7 267.6 121.1 266 120.1Z" fill="#638AE9"/>
<path d="M281.6 184H140.6L154 165.3C171 165.4 187.7 159.4 201 148.1L203.4 146C203.4 146 230.9 113.7 261.6 105.2C292.2 96.7999 286.2 152.5 281.6 184Z" fill="url(#paint0_linear_1834_1834)"/>
<path d="M102.4 153C95.9001 168.6 90.4001 180.9 88.9001 184H30.3C46.2 160.1 74.7001 148.2 102.4 153Z" fill="url(#paint1_linear_1834_1834)"/>
<path d="M154 165.3L140.6 184H88.8999C90.3999 180.9 95.8999 168.6 102.4 153C105.7 153.6 109 154.4 112.2 155.4L132.2 161.8C133.1 162.1 134 162.4 134.9 162.6C135.8 162.9 136.7 163.1 137.6 163.3C140.4 164 143.2 164.5 146 164.8C146.8 164.9 147.6 165 148.5 165C149.9 165.1 151.3 165.2 152.7 165.2C153.1 165.2 153.4 165.2 153.8 165.2H154V165.3Z" fill="url(#paint2_linear_1834_1834)"/>
<path d="M154 165.3L140.6 184H88.8999C90.2999 180.8 95.8999 168.6 102.4 153C105.7 153.6 109 154.4 112.2 155.4L132.2 161.8C139.4 164.1 146.7 165.3 154 165.3Z" fill="#F0EDE4"/>
<path d="M225.4 109.5C225.2 108 224.1 102.2 222.3 102.3C222.1 102.3 222 102.4 221.9 102.5C221.5 103 221.1 103.5 220.7 103.9C220.4 104.2 219.8 104 219.8 103.5C219.7 99.8998 217.5 95.8998 214.6 93.9998C214.3 93.7998 213.8 93.9998 213.8 94.3998C212.4 101.1 203.8 105.1 205.1 112.7C207.5 124.9 226.5 121.9 225.4 109.5ZM210.6 118.1C210.6 118.1 210.6 118 210.6 118.1C210.6 118 210.6 118.1 210.6 118.1Z" fill="url(#paint3_radial_1834_1834)"/>
<path d="M129.6 121.3C129.6 121.3 144.7 92.7999 146.4 83.2999C148.1 73.7999 150.5 65.9999 154.3 66.2999C158.1 66.4999 159.4 71.2999 158.5 79.9999C157.3 91.8999 151.5 108.9 151.5 108.9" stroke="#1F1F1F" stroke-width="2" stroke-miterlimit="10" stroke-linecap="round" stroke-linejoin="round"/>
<path d="M120.5 119.8C120.5 119.8 133.8 98 137.5 79.3C138.5 74.2 139.7 72.4 141.3 71C143.5 69.2 148.1 69.5 148.1 75.1" stroke="#1F1F1F" stroke-width="2" stroke-miterlimit="10" stroke-linecap="round" stroke-linejoin="round"/>
<path d="M177.3 113C177.3 113 173.7 117.1 176 119.8C177.2 121.2 181.4 122.7 184.7 124" stroke="#1F1F1F" stroke-width="2" stroke-miterlimit="10" stroke-linecap="round" stroke-linejoin="round"/>
<path d="M177.2 141.3C177.2 141.3 170 132.8 185 128.2" stroke="#1F1F1F" stroke-width="2" stroke-miterlimit="10" stroke-linecap="round" stroke-linejoin="round"/>
<path d="M124.5 91.0001C124.5 91.0001 129.4 91.7001 131.2 88.9001C133 86.1001 134.2 82.1001 134.2 82.1001" stroke="#1F1F1F" stroke-width="2" stroke-miterlimit="10" stroke-linecap="round" stroke-linejoin="round"/>
<path d="M137.2 80.8C137.2 80.8 139.6 83.4 142.4 80.8C145.2 78.2 145.9 70.5 145.9 70.5" stroke="#1F1F1F" stroke-width="2" stroke-miterlimit="10" stroke-linecap="round" stroke-linejoin="round"/>
<path d="M147 80.3999C147 80.3999 154 83.8999 157.5 68.3999" stroke="#1F1F1F" stroke-width="2" stroke-miterlimit="10" stroke-linecap="round" stroke-linejoin="round"/>
<path d="M180.3 126.9L215.2 120.6" stroke="#1F1F1F" stroke-width="2" stroke-miterlimit="10" stroke-linecap="round" stroke-linejoin="round"/>
<path d="M215.598 123.369C217.73 123.057 219.275 121.564 219.051 120.034C218.827 118.504 216.918 117.516 214.787 117.828C212.656 118.141 211.11 119.634 211.334 121.164C211.558 122.694 213.467 123.681 215.598 123.369Z" fill="#040404"/>
<path d="M299.865 91.1974L293.003 86.5278L276.294 111.081L283.156 115.75L299.865 91.1974Z" stroke="#1F1F1F" stroke-width="2" stroke-miterlimit="10" stroke-linecap="round" stroke-linejoin="round"/>
<path d="M273.6 122.5L231.7 184" stroke="#1F1F1F" stroke-width="2" stroke-miterlimit="10" stroke-linecap="round" stroke-linejoin="round"/>
<path d="M382.2 31.7998L340.4 93.2998" stroke="#1F1F1F" stroke-width="2" stroke-miterlimit="10" stroke-linecap="round" stroke-linejoin="round"/>
<path d="M383.4 63.2002L341.5 124.8" stroke="#1F1F1F" stroke-width="2" stroke-miterlimit="10" stroke-linecap="round" stroke-linejoin="round"/>
<path d="M254.9 112.5C254.9 112.5 244.9 125.4 232.6 116.9" stroke="#1F1F1F" stroke-width="2" stroke-miterlimit="10" stroke-linecap="round" stroke-linejoin="round"/>
<path d="M154 165.3L140.6 184H88.8999C90.3999 180.9 95.8999 168.6 102.4 153C105.7 153.6 109 154.4 112.2 155.4L132.2 161.8C133.1 162.1 134 162.4 134.9 162.6C135.8 162.9 136.7 163.1 137.6 163.3C140.4 164 143.2 164.5 146 164.8C146.8 164.9 147.6 165 148.5 165C149.9 165.1 151.3 165.2 152.7 165.2C153.1 165.2 153.4 165.2 153.8 165.2H154V165.3Z" fill="url(#paint4_linear_1834_1834)"/>
<path d="M140.6 184L162.3 153.8C162.3 153.8 178.4 140 180.9 138.5C183.5 137 190.5 128.8 182.9 127.5C175.3 126.2 155.9 144.4 149 138.5C142.1 132.6 149.9 121.7 153.9 120.9C158.8 119.9 163.3 119.6 168.2 120.9C173.1 122.2 178.6 127.8 183 125.5C187.4 123.2 186.4 117.6 181.1 114.8C179.6 114 147 96.5 134.5 123.2" stroke="#1F1F1F" stroke-width="2" stroke-miterlimit="10" stroke-linecap="round" stroke-linejoin="round"/>
<path d="M88.8999 184C88.8999 184 112.4 133.4 122.7 96.6998C124.6 89.8998 127.7 81.6998 129.8 80.9998C134.2 79.6998 136.1 84.8998 135.5 86.9998" stroke="#1F1F1F" stroke-width="2" stroke-miterlimit="10" stroke-linecap="round" stroke-linejoin="round"/>
<path d="M283.3 120.9L274.2 114.7L276.3 111.2L283.1 115.8L283.3 120.9ZM283.3 120.9L299.9 96.5002V91.2002" stroke="#1F1F1F" stroke-width="2" stroke-miterlimit="10" stroke-linecap="round" stroke-linejoin="round"/>
<path d="M266 120.1L243.8 105C242.2 103.9 241.8 101.7 242.9 100.1L277.5 49.3C278.6 47.7 280.8 47.3 282.4 48.4L304.6 63.5C306.2 64.6 306.6 66.8 305.5 68.4L270.9 119.2C269.8 120.7 267.6 121.1 266 120.1Z" fill="url(#paint5_linear_1834_1834)"/>
<path d="M310.3 70.1001L275.1 46.1001C273.7 45.1001 273.9 43.0001 275.4 42.3001L312.7 25.7001C314 25.1001 315.4 26.1001 315.3 27.5001L313.6 68.3001C313.7 70.1001 311.7 71.1001 310.3 70.1001Z" fill="#638AE9"/>
<path d="M310.3 70.1001L275.1 46.1001C273.7 45.1001 273.9 43.0001 275.4 42.3001L312.7 25.7001C314 25.1001 315.4 26.1001 315.3 27.5001L313.6 68.3001C313.7 70.1001 311.7 71.1001 310.3 70.1001Z" fill="url(#paint6_linear_1834_1834)"/>
<path d="M266.3 98.9L264.3 97.6L265.6 95.6C263.7 94.2 262.3 92.5 261.7 90.6C261.1 88.7 261.5 86.9 262.6 85.3L265.3 87C264.8 88.2 264.7 89.2 264.9 90.3C265.3 91.3 266 92.5 267.1 93.5L272.3 85.4L271.3 84.2C269.9 82.5 269.1 81.3 268.8 79.5C268.6 77.8 268.8 76.4 269.7 75C270.9 73.2 272.2 72.3 274.2 72C276 71.6 278 71.9 280 73.2L281.4 71L283.4 72.3L282 74.5C283.7 75.8 284.9 77.4 285.5 79.3C286.1 81.2 285.7 83 284.6 84.6L281.9 82.9C282.5 82 282.5 80.7 282.4 79.7C282 78.7 281.5 77.6 280.3 76.6L275.3 84.4L276.3 85.6C277.7 87.3 278.7 88.9 279 90.4C279.3 91.9 279 93.5 278 95.1C276.8 96.9 275.4 98 273.4 98.3C271.5 98.6 269.4 98.3 267 96.8L266.3 98.9ZM272.8 76.2C271.6 78 272.1 80.1 274.2 82.2L278.8 75C277.7 74.3 276.5 74.3 275.4 74.4C274.3 74.7 273.4 75.3 272.8 76.2ZM276 93.3C276.7 92.2 276.8 91.3 276.6 90.1C276.4 89.2 275.5 87.9 274.3 86.6L269.3 94.4C270.7 95.3 272 95.3 273 95.3C274 95.2 275.3 94.4 276 93.3Z" fill="#002D9C"/>
<path d="M243.8 31.7998V40.3998" stroke="#1F1F1F" stroke-width="2" stroke-miterlimit="10" stroke-linecap="round" stroke-linejoin="round"/>
<path d="M248.1 36.0996H239.4" stroke="#1F1F1F" stroke-width="2" stroke-miterlimit="10" stroke-linecap="round" stroke-linejoin="round"/>
<path d="M333.5 96.8999V105.6" stroke="#1F1F1F" stroke-width="2" stroke-miterlimit="10" stroke-linecap="round" stroke-linejoin="round"/>
<path d="M337.8 101.2H329.1" stroke="#1F1F1F" stroke-width="2" stroke-miterlimit="10" stroke-linecap="round" stroke-linejoin="round"/>
<path d="M336 128V136.7" stroke="#1F1F1F" stroke-width="2" stroke-miterlimit="10" stroke-linecap="round" stroke-linejoin="round"/>
<path d="M340.4 132.4H331.7" stroke="#1F1F1F" stroke-width="2" stroke-miterlimit="10" stroke-linecap="round" stroke-linejoin="round"/>
</g>
<defs>
<linearGradient id="paint0_linear_1834_1834" x1="247.983" y1="192.51" x2="133.6" y2="56.6798" gradientUnits="userSpaceOnUse">
<stop offset="0.3078" stop-color="#3761C8" stop-opacity="0"/>
<stop offset="0.4984" stop-color="#3760C6" stop-opacity="0.4047"/>
<stop offset="0.5248" stop-color="#365EBF" stop-opacity="0.5505"/>
<stop offset="0.5436" stop-color="#3459B4" stop-opacity="0.6545"/>
<stop offset="0.5588" stop-color="#3252A3" stop-opacity="0.7385"/>
<stop offset="0.5718" stop-color="#2F4A8D" stop-opacity="0.8105"/>
<stop offset="0.5833" stop-color="#2B3F71" stop-opacity="0.8742"/>
<stop offset="0.5938" stop-color="#263351" stop-opacity="0.9319"/>
<stop offset="0.603" stop-color="#21242D" stop-opacity="0.9831"/>
<stop offset="0.6061" stop-color="#1F1F1F"/>
</linearGradient>
<linearGradient id="paint1_linear_1834_1834" x1="99.7025" y1="275.301" x2="28.7238" y2="48.0673" gradientUnits="userSpaceOnUse">
<stop offset="0.3078" stop-color="#3761C8" stop-opacity="0"/>
<stop offset="0.4984" stop-color="#3760C6" stop-opacity="0.4047"/>
<stop offset="0.5248" stop-color="#365EBF" stop-opacity="0.5505"/>
<stop offset="0.5436" stop-color="#3459B4" stop-opacity="0.6545"/>
<stop offset="0.5588" stop-color="#3252A3" stop-opacity="0.7385"/>
<stop offset="0.5718" stop-color="#2F4A8D" stop-opacity="0.8105"/>
<stop offset="0.5833" stop-color="#2B3F71" stop-opacity="0.8742"/>
<stop offset="0.5938" stop-color="#263351" stop-opacity="0.9319"/>
<stop offset="0.603" stop-color="#21242D" stop-opacity="0.9831"/>
<stop offset="0.6061" stop-color="#1F1F1F"/>
</linearGradient>
<linearGradient id="paint2_linear_1834_1834" x1="128.431" y1="192.286" x2="97.8225" y2="114.828" gradientUnits="userSpaceOnUse">
<stop offset="0.3078" stop-color="#3761C8" stop-opacity="0"/>
<stop offset="0.4984" stop-color="#3760C6" stop-opacity="0.4047"/>
<stop offset="0.5248" stop-color="#365EBF" stop-opacity="0.5505"/>
<stop offset="0.5436" stop-color="#3459B4" stop-opacity="0.6545"/>
<stop offset="0.5588" stop-color="#3252A3" stop-opacity="0.7385"/>
<stop offset="0.5718" stop-color="#2F4A8D" stop-opacity="0.8105"/>
<stop offset="0.5833" stop-color="#2B3F71" stop-opacity="0.8742"/>
<stop offset="0.5938" stop-color="#263351" stop-opacity="0.9319"/>
<stop offset="0.603" stop-color="#21242D" stop-opacity="0.9831"/>
<stop offset="0.6061" stop-color="#1F1F1F"/>
</linearGradient>
<radialGradient id="paint3_radial_1834_1834" cx="0" cy="0" r="1" gradientUnits="userSpaceOnUse" gradientTransform="translate(214.88 116.452) rotate(-90) scale(15.0773 10.0852)">
<stop offset="0.4487" stop-color="#3761C8" stop-opacity="0"/>
<stop offset="0.5613" stop-color="#2F4A8D" stop-opacity="0.3514"/>
<stop offset="0.7197" stop-color="#1F1F1F"/>
</radialGradient>
<linearGradient id="paint4_linear_1834_1834" x1="91.8891" y1="202.526" x2="150.102" y2="135.633" gradientUnits="userSpaceOnUse">
<stop offset="0.5007" stop-color="#3761C8" stop-opacity="0"/>
<stop offset="0.5613" stop-color="#2F4A8D" stop-opacity="0.3514"/>
<stop offset="0.6146" stop-color="#1F1F1F"/>
</linearGradient>
<linearGradient id="paint5_linear_1834_1834" x1="189.939" y1="140.803" x2="368.672" y2="20.6547" gradientUnits="userSpaceOnUse">
<stop offset="0.4252" stop-color="#3761C8" stop-opacity="0"/>
<stop offset="0.4984" stop-color="#3760C6" stop-opacity="0.4047"/>
<stop offset="0.5248" stop-color="#365EBF" stop-opacity="0.5505"/>
<stop offset="0.5436" stop-color="#3459B4" stop-opacity="0.6545"/>
<stop offset="0.5588" stop-color="#3252A3" stop-opacity="0.7385"/>
<stop offset="0.5718" stop-color="#2F4A8D" stop-opacity="0.8105"/>
<stop offset="0.5833" stop-color="#2B3F71" stop-opacity="0.8742"/>
<stop offset="0.5938" stop-color="#263351" stop-opacity="0.9319"/>
<stop offset="0.603" stop-color="#21242D" stop-opacity="0.9831"/>
<stop offset="0.6061" stop-color="#1F1F1F"/>
</linearGradient>
<linearGradient id="paint6_linear_1834_1834" x1="259.465" y1="44.453" x2="349.167" y2="50.5807" gradientUnits="userSpaceOnUse">
<stop offset="0.4252" stop-color="#3761C8" stop-opacity="0"/>
<stop offset="0.4984" stop-color="#3760C6" stop-opacity="0.4047"/>
<stop offset="0.5248" stop-color="#365EBF" stop-opacity="0.5505"/>
<stop offset="0.5436" stop-color="#3459B4" stop-opacity="0.6545"/>
<stop offset="0.5588" stop-color="#3252A3" stop-opacity="0.7385"/>
<stop offset="0.5718" stop-color="#2F4A8D" stop-opacity="0.8105"/>
<stop offset="0.5833" stop-color="#2B3F71" stop-opacity="0.8742"/>
<stop offset="0.5938" stop-color="#263351" stop-opacity="0.9319"/>
<stop offset="0.603" stop-color="#21242D" stop-opacity="0.9831"/>
<stop offset="0.6061" stop-color="#1F1F1F"/>
</linearGradient>
<clipPath id="clip0_1834_1834">
<rect width="405" height="184" rx="8" fill="white"/>
</clipPath>
</defs>
</svg>
