<svg width="22" height="22" viewBox="0 0 22 22" fill="none" xmlns="http://www.w3.org/2000/svg">
<path d="M21.5619 19.4451L16.3423 14.2255C17.6515 12.3855 18.2216 10.1207 17.9395 7.88013C17.6574 5.63956 16.5438 3.58677 14.8194 2.12866C13.095 0.670564 10.8856 -0.0863908 8.62935 0.00785131C6.37306 0.102093 4.23455 1.04065 2.63772 2.63748C1.0409 4.2343 0.102338 6.37282 0.00809545 8.6291C-0.0861467 10.8854 0.670809 13.0947 2.12891 14.8191C3.58701 16.5436 5.63981 17.6572 7.88037 17.9393C10.1209 18.2213 12.3857 17.6513 14.2257 16.342L19.4453 21.5616C19.726 21.8423 20.1067 22 20.5036 22C20.9005 22 21.2812 21.8423 21.5619 21.5616C21.8426 21.281 22.0002 20.9003 22.0002 20.5034C22.0002 20.1064 21.8426 19.7257 21.5619 19.4451ZM2.05096 9.0328C2.05096 7.65187 2.46045 6.30196 3.22765 5.15376C3.99485 4.00556 5.08531 3.11065 6.36111 2.58219C7.63692 2.05374 9.04079 1.91547 10.3952 2.18487C11.7496 2.45428 12.9937 3.11926 13.9701 4.09572C14.9466 5.07218 15.6116 6.31627 15.881 7.67066C16.1504 9.02505 16.0121 10.4289 15.4836 11.7047C14.9552 12.9805 14.0603 14.071 12.9121 14.8382C11.7639 15.6054 10.414 16.0149 9.03304 16.0149C7.18193 16.0128 5.40723 15.2765 4.0983 13.9675C2.78936 12.6586 2.05307 10.8839 2.05096 9.0328Z" fill="#999999"/>
</svg>
