<svg width="8" height="16" viewBox="0 0 8 16" fill="none" xmlns="http://www.w3.org/2000/svg">
<path d="M0.000295106 1.0439C0.000240185 1.18095 0.024068 1.31667 0.0704174 1.4433C0.116767 1.56994 0.18473 1.68501 0.270425 1.78195L5.77147 8.00007L0.270426 14.2182C0.097275 14.4139 -5.77245e-08 14.6794 -4.56242e-08 14.9562C-3.35239e-08 15.2331 0.097275 15.4985 0.270426 15.6943C0.443576 15.89 0.678419 16 0.92329 16C1.16816 16 1.403 15.89 1.57616 15.6943L7.72945 8.73812C7.81522 8.64122 7.88326 8.52616 7.92969 8.39953C7.97611 8.27289 8 8.13715 8 8.00007C8 7.86299 7.97611 7.72725 7.92969 7.60061C7.88326 7.47398 7.81522 7.35892 7.72945 7.26202L1.57615 0.305849C1.44707 0.159828 1.28257 0.0603761 1.10347 0.0200757C0.924373 -0.0202237 0.738725 0.000440565 0.570018 0.0794534C0.401312 0.158467 0.257129 0.292278 0.155714 0.463956C0.0543 0.635633 0.000212322 0.837461 0.000295106 1.0439Z" fill="#1F1F1F"/>
</svg>
